<?xml version="1.0" encoding="UTF-8"?>
<svg width="240px" height="240px" viewBox="0 0 240 240" version="1.1" xmlns="http://www.w3.org/2000/svg" xmlns:xlink="http://www.w3.org/1999/xlink">
    <!-- Generator: Sketch 47.1 (45422) - http://www.bohemiancoding.com/sketch -->
    <title>Group 12</title>
    <desc>Created with Sketch.</desc>
    <defs></defs>
    <g id="Page-1" stroke="none" stroke-width="1" fill="none" fill-rule="evenodd">
        <g id="Group-12">
            <rect id="Rectangle-7-Copy" fill="#ECF0F1" x="0" y="0" width="240" height="240"></rect>
            <g id="XMLID_312_-Copy" opacity="0.191745924" transform="translate(67.000000, 73.000000)" fill-rule="nonzero" fill="#8E999B">
                <path d="M72.2736959,49.3462751 C67.4300898,41.7636084 59.0716429,37.1771096 50.0971816,37.1771096 C41.1238122,37.1771096 32.7653653,41.7633893 27.9219776,49.3462751 L14.5878122,70.218 C10.9360551,75.9351282 11.4459429,83.3777809 15.8405857,88.5390163 C20.2409061,93.7004709 27.4889551,95.3628904 33.6873122,92.6294406 L33.6914612,92.6257156 C44.1464531,88.014676 56.0496571,88.014676 66.5077061,92.6294406 C72.702351,95.3628904 79.9504,93.7024429 84.3511571,88.5409883 C88.7495122,83.3797529 89.2594,75.9351282 85.6076429,70.218 L72.2736959,49.3462751 Z" id="XMLID_317_"></path>
                <path d="M17.1828898,47.333711 C23.3124612,44.970345 26.0348469,37.1985828 23.2663857,29.9822751 C20.4961776,22.7675012 13.2832857,18.8315524 7.16048367,21.1986434 C1.03571633,23.5617902 -1.68273878,31.3320186 1.0807,38.5498601 C3.85221837,45.7624429 11.0655469,49.7003636 17.1828898,47.333711 Z" id="XMLID_316_"></path>
                <path d="M41.2574531,34.2653007 C49.2416184,34.2653007 55.7166469,26.6368392 55.7166469,17.2311422 C55.7166469,7.82150117 49.2416184,0.193258741 41.2574531,0.193258741 C33.2754714,0.193258741 26.8002245,7.82128205 26.8002245,17.2311422 C26.8002245,26.6368392 33.2754714,34.2653007 41.2574531,34.2653007 Z" id="XMLID_315_"></path>
                <path d="M68.2159939,39.328373 C75.7926857,41.8547599 84.3363082,36.6635058 87.2932204,27.737669 C90.252098,18.8105175 86.5025122,9.52182751 78.9304061,6.99565967 C71.3532776,4.46949184 62.8098735,9.66052681 59.8551449,18.5878974 C56.8980143,27.5152681 60.6438878,36.8022051 68.2159939,39.328373 Z" id="XMLID_314_"></path>
                <path d="M102.55688,36.7669277 C97.2763204,32.8522331 89.2836388,34.7122937 84.6968327,40.9292214 C80.1154857,47.1479021 80.6775633,55.3635897 85.9478592,59.2782844 C91.2166265,63.1951702 99.218698,61.3333566 103.808124,55.1177436 C108.389253,48.8992821 107.825647,40.6820606 102.55688,36.7669277 Z" id="XMLID_313_"></path>
            </g>
        </g>
    </g>
</svg>